<svg xmlns:xlink="http://www.w3.org/1999/xlink" xmlns="http://www.w3.org/2000/svg" viewBox="0 0 24 24" width="24"  height="24" ><defs><g id="ui-icon-giftcard" viewBox="0 0 24 24"><path d="M18.73 5.5h-.91a3 3 0 0 0-5.34-2.61l0 0-.46.8-.46-.8 0 0A3 3 0 0 0 6.18 5.5H4.73a3 3 0 0 0-3 3v10a3 3 0 0 0 3 3h14a3 3 0 0 0 3-3V8.5A3 3 0 0 0 18.73 5.5ZM16 4.5a1 1 0 1 1-1-1A1 1 0 0 1 16 4.5Zm-8 0a1 1 0 1 1 1 1A1 1 0 0 1 8 4.5Zm-3.27 3H9.85L8.37 10.1a1 1 0 0 0 .37 1.36 1 1 0 0 0 1.37-.37L12 7.76l1.89 3.33a1 1 0 0 0 1.37.37 1 1 0 0 0 .37-1.36L14.15 7.5h4.58a1 1 0 0 1 1 1V14h-16V8.5A1 1 0 0 1 4.73 7.5Zm14 12h-14a1 1 0 0 1-1-1V17h16v1.5A1 1 0 0 1 18.73 19.5Z"></path></g></defs><use xlink:href="#ui-icon-giftcard" fill="#959BA2"></use></svg>